<?xml version="1.0" encoding="utf-8"?>
<!-- Generator: Adobe Illustrator 23.0.3, SVG Export Plug-In . SVG Version: 6.00 Build 0)  -->
<svg version="1.1" id="Layer_1" xmlns="http://www.w3.org/2000/svg" xmlns:xlink="http://www.w3.org/1999/xlink" x="0px" y="0px"
	 viewBox="0 0 612 792" style="enable-background:new 0 0 612 792;" xml:space="preserve">
<style type="text/css">
	.st0{fill:#FFFFFF;}
</style>
<g>
	<path class="st0" d="M315.25,395.84c-2.77,4.82-6.62,8.73-10.41,12.67c-2.23,2.32-4.75,4.38-7.24,6.43
		c-5.76,4.75-11.44,9.63-17.43,14.08c-5.73,4.25-11.81,8.03-17.74,12.01c-2.47,1.66-4.94,3.33-7.46,4.9
		c-3.24,2.02-6.5,4.04-9.83,5.92c-4.99,2.81-10.06,5.48-15.08,8.25c-2.68,1.49-5.2,3.3-7.98,4.57c-4.3,1.96-8.67,3.88-13.18,5.27
		c-5.96,1.83-12.12,2.68-18.39,3.12c-5.46,0.39-10.8,0.23-16.08-0.97c-3.12-0.71-6.4-1.57-9.07-3.22c-3.82-2.36-7.33-5.15-9.58-9.47
		c-2.35-4.49-3.05-9.06-2.89-13.94c0.06-1.83-0.09-3.71,0.27-5.48c0.54-2.66,1.34-5.29,2.21-7.87c1.25-3.68,2.54-7.36,4.07-10.92
		c0.56-1.3,1.84-2.29,2.8-3.42c0.22,0.13,0.43,0.25,0.65,0.38c-0.24,0.84-0.39,1.71-0.73,2.5c-2.87,6.54-4.27,13.42-4.67,20.51
		c-0.08,1.44-0.16,3.07-0.07,4.54c-0.15,10.67,5.09,14.19,8.81,17.37c5.03,4.31,12.89,5.38,19.32,4.77
		c1.98-0.22,3.99-0.16,5.97-0.41c3.12-0.39,6.26-0.78,9.33-1.43c7.12-1.5,13.88-4.05,20.38-7.31c2.01-1.01,3.91-2.22,5.88-3.3
		c5.83-3.17,11.71-6.23,17.48-9.49c3.1-1.75,6.04-3.81,9.04-5.74c3.7-2.39,7.47-4.7,11.07-7.23c5.71-4.01,11.32-8.16,16.95-12.28
		c3.48-2.55,6.97-5.09,10.35-7.76c1.68-1.33,3.21-2.88,4.7-4.43c2.41-2.51,4.98-4.93,7.02-7.72c2.45-3.35,4.52-6.99,6.56-10.61
		c1.35-2.38,2.51-4.89,3.5-7.45c2.08-5.38-0.38-10.73-5.6-13.31c-3.72-1.84-7.49-3.11-11.66-3.25c-1.92-0.06-3.25,0.57-4.6,1.92
		c-4.45,4.47-9.01,8.84-13.63,13.13c-3.52,3.28-7.04,6.6-10.87,9.49c-3.96,2.99-8.29,5.5-12.48,8.2c-1.47,0.94-2.98,1.83-4.5,2.69
		c-8.85,5.01-17.97,9.34-27.98,11.59c-3.96,0.89-7.8,2.33-11.77,3.18c-2.32,0.5-4.78,0.33-7.18,0.46c-1.07,0.06-2.15,0.07-3.22,0.18
		c-3.31,0.34-6.58,0.49-9.88-0.32c-2.09-0.52-4.31-0.47-6.41-0.94c-4.61-1.03-9.16-2.33-13.77-3.32c-3.42-0.74-6.64-2-9.88-3.22
		c-1.78-0.67-3.5-1.54-5.21-2.39c-3.19-1.6-6.36-3.23-9.51-4.9c-0.95-0.5-1.79-1.21-2.69-1.8c-2.15-1.41-4.35-2.74-6.46-4.21
		c-8.43-5.85-13.13-13.88-12.98-24.18c0.05-3.82,1.4-7.66,2.43-11.42c1.32-4.84,3.29-9.44,6.26-13.52c3.16-4.35,6.4-8.64,9.73-12.87
		c0.68-0.86,1.85-1.33,2.82-1.94c0.7-0.44,1.44-0.83,2.15-1.23c1.01,1.7,0.52,3.15-1.21,4.31c-0.33,0.22-0.62,0.57-0.83,0.92
		c-3.52,5.83-7.16,11.59-10.45,17.54c-1.13,2.04-1.39,4.57-1.98,6.89c-0.47,1.85-0.75,3.76-1.29,5.58
		c-4.69,11.57,10.25,26.85,11.13,27.38c2.77,1.66,5.52,3.37,8.43,4.76c3.28,1.57,6.74,2.76,10.08,4.2c3.24,1.39,6.39,2.98,9.65,4.32
		c2.21,0.91,4.5,1.71,6.83,2.26c3.52,0.84,7.08,1.73,10.68,2.03c5.37,0.46,10.79,0.73,16.17,0.5c3.53-0.15,7.05-1.15,10.5-2.09
		c4.33-1.18,8.58-2.67,12.86-4.03c0.24-0.08,10.17-3.59,14.47-5.91c0.6-0.28,1.16-0.64,1.73-0.98c6.02-3.63,12.04-7.27,18.06-10.91
		c4.14-2.5,7.71-5.68,11.11-9.1c2.15-2.17,4.63-4.01,6.86-6.11c1.88-1.77,3.63-3.66,5.38-5.55c0.98-1.06,0.34-1.62-0.77-1.89
		c-6.81-1.65-13.63-2.74-20.73-1.94c-3.93,0.45-7.98,0.3-11.94-0.04c-5.5-0.47-10.27,1.4-15.03,3.71c-1.7,0.82-3.56,1.4-5.4,1.81
		c-2.02,0.45-3.32-0.25-3.94-1.74c-0.6-1.44-0.08-2.63,1.87-3.86c2.54-1.6,5.23-2.96,7.67-4.69c2.77-1.96,5.37-4.19,8-6.34
		c4.06-3.32,8.09-6.66,12.13-10.01c3.33-2.76,6.52-5.7,9.99-8.26c4.88-3.6,9.96-6.93,14.96-10.35c1.02-0.7,2.26-1.66,2.11-2.02
		c-0.21-0.51-1.11-1.07-2.01-1.53c-7.04-3.58-14.03-7.46-21.83-9.05c-5.51-1.12-11.05-2.25-16.78-2.14
		c-7.39,0.15-14.79-0.25-22.18-0.2c-4.4,0.03-8.79,0.59-13.19,0.69c-2.81,0.06-5.63-0.26-8.44-0.47c-0.47-0.03-1.07-0.25-1.33-0.59
		c-0.35-0.47-0.73-1.26-0.56-1.69c0.16-0.41,0.53-1.2,1.33-1.63c0.89-0.59,3.13-1.06,3.13-1.06c1.9-0.34,3.77-0.64,5.53-0.9
		c3.2-0.47,6.45-0.73,9.69-0.79c5.89-0.11,11.78,0,17.68,0.02c0.58,0,1.18,0.13,1.74,0.02c4.6-0.83,9.12,0.22,13.63,0.72
		c4.77,0.53,9.54,1.37,14.21,2.48c6.26,1.49,12.04,4.27,17.57,7.54c2,1.18,3.91,2.5,5.87,3.75c1.03,0.65,2.04,0.59,3.03-0.13
		c3.49-2.55,6.97-5.11,10.47-7.64c1.07-0.77,2.2-1.48,3.32-2.17c1.62-1,3.23-1.99,4.89-2.9c0.58-0.32,1.67-0.74,1.89-0.5
		c0.56,0.59,1.06,1.53,1.04,2.32c-0.02,0.95-0.43,2-0.98,2.79c-1.66,2.4-3.54,4.59-6.2,6.01c-3.08,1.64-6.13,3.35-9.14,5.13
		c-0.85,0.5-2.14,0.96-2.34,1.62c-0.13,0.42,1,1.58,1.58,2.39c0.87,1.21,1.74,2.45,2.79,3.49c3.92,3.86,4.19,8.93,4.6,13.88
		c0.21,2.63-0.18,5.32-0.38,7.97c-0.05,0.73-0.33,1.45-0.6,2.14c-0.83,2.09-1.76,4.13-2.57,6.23c-0.76,1.97-0.47,2.47,1.49,3.12
		c3.07,1.02,6.15,2,9.18,3.11c4.32,1.57,7.56,4.46,9.66,8.53c1.34,2.6,1.4,5.45,1.26,8.3C320.8,384.51,315.89,394.73,315.25,395.84z
		 M297.42,342.37c0.55-6.64-2.56-11.64-7.16-15.98c-0.99-0.94-1.96-0.67-2.94-0.01c-1.45,0.96-2.89,1.95-4.35,2.89
		c-4.25,2.75-8.58,5.37-12.73,8.25c-2.79,1.94-5.35,4.21-7.99,6.36c-2.83,2.3-5.65,4.61-8.42,6.98c-0.94,0.81-1.79,1.75-2.56,2.72
		c-0.84,1.06-0.69,2.25,0.67,2.55c1.82,0.41,3.75,0.64,5.61,0.54c4.98-0.27,9.94-0.69,14.93-0.04c5.27,0.68,10.57,1.13,15.86,1.72
		c1.69,0.19,3.17,0.02,4.13-1.6C295.11,352.31,297.47,347.76,297.42,342.37z"/>
	<path class="st0" d="M316.33,381.57c2.48-3.55,4.86-7.06,7.1-10.56c1.87-2.92,3.87-5.82,5.28-8.97c0.01-0.01,0.01-0.03,0.02-0.04
		c4.52-7.39,9.25-14.61,14.32-21.67c4.12-5.21,7.85-10.71,11.88-16c1.3-1.7,2.93-3.17,4.52-4.62c0.48-0.63,1.4-1.14,1.96-0.56
		c0.32,0.32,0.84,0.47,0.99,1.74c0.1,3.96-6.46,7.89-7.7,9.54c-3.14,3.85-8.12,13.44-8.37,13.94c-3.42,7.04-7.93,12.15-11.15,18.82
		c-0.01,0.02-2.28,3.82-3.51,5.66c-0.71,1.05-1.2,2.24-1.75,3.4c-0.12,0.25,0.01,0.55,0.27,0.64c1.34,0.44,2.28-0.69,3.34-1.22
		c1.17-0.58,2.86-1.36,3.94-2.13c0.03-0.02,0.06-0.04,0.09-0.05c1.49-0.58,2.4-0.91,4.25-1.2c2.01-0.45,2.52-1.42,4.19-2.07
		c1.99-0.95,1.84-0.78,7.01-3.51c0.93-0.01,10.77-6.21,11.7-6.55c1.81-0.65,4.55,0.64,4.48,2.54c-0.02,0.43-2.53,4.71-3.03,5.24
		c-0.03,0.04-0.08,0.06-0.13,0.07c-2.46,0.97-3.63,2.7-6.6,3.35c-2.41-0.09-8.56,5.45-8.83,5.75c-2.48,2.73-0.99,4.27-1.56,6.97
		c0.04,3.63-0.35,3.91-0.8,6.53c-0.28,1.65,0.84,2.91,2.51,2.81c4.57-0.29,9.11-0.57,13.63-1.58c6-1.34,12.18-1.83,18.21-3.06
		c7.35-1.51,14.72-1.5,22.13-1.08c3.14,0.18,6.26,0.87,9.39,1.29c4.12,0.56,8.32,0.74,12.33,1.72c4.48,1.09,7.61,4.25,9.8,8.29
		c0.16,0.29,0.36,0.62,0.34,0.92c-0.03,0.63,0.01,1.49-0.37,1.8c-0.36,0.3-1.31,0.21-1.8-0.06c-1.68-0.91-3.21-2.1-4.93-2.94
		c-1.61-0.79-3.34-1.52-5.09-1.82c-4.26-0.74-8.56-1.22-12.85-1.82c-4.37-0.61-8.72-1.55-13.1-1.75c-3.1-0.14-6.24,0.67-9.36,1.1
		c-5.44,0.74-10.88,1.48-16.31,2.27c-1.72,0.25-3.41,0.74-5.13,0.99c-5.76,0.86-11.51,1.86-17.3,2.39
		c-2.94,0.27-5.98-0.17-8.93-0.58c-2.34-0.32-3.28-2.22-2.55-4.48c0.18-0.55,0.54-1.03,0.77-1.56c1.1-2.59,0.48-2.87,1.59-5.46
		c0.69-1.6,0.32-1.38,0.97-3c0.16-0.39,0.11-1.83,0.13-2.15c0.34-5.43-3.62-4.15-6.34-2.13c-1.49,1.11-4.96,2.76-5.39,3.04
		c-2.14,1.42-2.66,2.24-4.5,3.99c-3.6,3.43-6.44,7.41-9.87,11.04c-0.65,0.69-1.16,1.49-1.57,2.35c-0.94,2-3.75,3.14-5.78,2.33
		c-1.78-0.71-2.49-2.78-1.5-4.61c0.43-0.8,1.17-1.42,1.62-2.21C309.64,391.51,314.53,384.15,316.33,381.57z"/>
</g>
</svg>
